<svg width="11" height="18" viewBox="0 0 11 18" fill="none" xmlns="http://www.w3.org/2000/svg">
    <path
        d="M0.564453 8.94922C0.564453 9.34961 0.710938 9.68164 1.0332 9.99414L8.55273 17.3477C8.79688 17.6016 9.10938 17.7285 9.4707 17.7285C10.2031 17.7285 10.7891 17.1426 10.7891 16.4102C10.7891 16.0391 10.6426 15.7168 10.3789 15.4531L3.69922 8.93945L10.3789 2.44531C10.6426 2.18164 10.7891 1.84961 10.7891 1.48828C10.7891 0.755859 10.2031 0.179688 9.4707 0.179688C9.09961 0.179688 8.79688 0.296875 8.55273 0.550781L1.0332 7.9043C0.710938 8.2168 0.574219 8.54883 0.564453 8.94922Z"
        fill="#1D1D1B" />
</svg>
