<svg width="24" height="22" viewBox="0 0 24 22" fill="none" xmlns="http://www.w3.org/2000/svg">
    <path
        d="M4.28829 21.8002C3.05885 21.8002 2.13677 21.4963 1.52204 20.8885C0.907331 20.2809 0.599976 19.3695 0.599976 18.1543V3.84612C0.599976 2.6308 0.907331 1.71932 1.52204 1.11167C2.13677 0.50402 3.05885 0.200195 4.28829 0.200195H20.271C21.5004 0.200195 22.4225 0.50402 23.0372 1.11167C23.6519 1.71932 23.9593 2.6308 23.9593 3.84612V18.1543C23.9593 19.3695 23.6519 20.2809 23.0372 20.8885C22.4225 21.4963 21.5004 21.8002 20.271 21.8002H4.28829ZM4.1187 19.8076H20.4193C20.9139 19.8076 21.2919 19.6804 21.5534 19.426C21.8149 19.1716 21.9456 18.7901 21.9456 18.2814V7.19528C21.9456 6.10715 21.4015 5.56308 20.3133 5.56308H4.22469C3.1507 5.56308 2.6137 6.10715 2.6137 7.19528V18.2814C2.6137 18.7901 2.74088 19.1716 2.99525 19.426C3.24963 19.6804 3.62411 19.8076 4.1187 19.8076ZM9.92673 9.9721C9.67237 9.9721 9.49926 9.92617 9.40742 9.83433C9.31556 9.74247 9.26963 9.57642 9.26963 9.33618V8.4883C9.26963 8.24806 9.31556 8.07848 9.40742 7.97956C9.49926 7.88063 9.67237 7.83117 9.92673 7.83117H10.7322C10.9866 7.83117 11.1632 7.88063 11.2622 7.97956C11.3611 8.07848 11.4105 8.24806 11.4105 8.4883V9.33618C11.4105 9.57642 11.3611 9.74247 11.2622 9.83433C11.1632 9.92617 10.9866 9.9721 10.7322 9.9721H9.92673ZM13.827 9.9721C13.5726 9.9721 13.396 9.92617 13.2971 9.83433C13.1981 9.74247 13.1487 9.57642 13.1487 9.33618V8.4883C13.1487 8.24806 13.1981 8.07848 13.2971 7.97956C13.396 7.88063 13.5726 7.83117 13.827 7.83117H14.6325C14.8869 7.83117 15.06 7.88063 15.1519 7.97956C15.2438 8.07848 15.2897 8.24806 15.2897 8.4883V9.33618C15.2897 9.57642 15.2438 9.74247 15.1519 9.83433C15.06 9.92617 14.8869 9.9721 14.6325 9.9721H13.827ZM17.7273 9.9721C17.4589 9.9721 17.2787 9.92617 17.1868 9.83433C17.0949 9.74247 17.049 9.57642 17.049 9.33618V8.4883C17.049 8.05022 17.2751 7.83117 17.7273 7.83117H18.5115C18.9637 7.83117 19.1898 8.05022 19.1898 8.4883V9.33618C19.1898 9.76012 18.9637 9.9721 18.5115 9.9721H17.7273ZM6.04764 13.7877C5.59544 13.7877 5.36933 13.5757 5.36933 13.1517V12.3249C5.36933 11.8869 5.59544 11.6679 6.04764 11.6679H6.83194C7.28415 11.6679 7.51025 11.8869 7.51025 12.3249V13.1517C7.51025 13.4061 7.46433 13.5757 7.37249 13.6605C7.28063 13.7453 7.10044 13.7877 6.83194 13.7877H6.04764ZM9.92673 13.7877C9.67237 13.7877 9.49926 13.7453 9.40742 13.6605C9.31556 13.5757 9.26963 13.4061 9.26963 13.1517V12.3249C9.26963 12.0707 9.31556 11.8976 9.40742 11.8057C9.49926 11.7138 9.67237 11.6679 9.92673 11.6679H10.7322C10.9866 11.6679 11.1632 11.7138 11.2622 11.8057C11.3611 11.8976 11.4105 12.0707 11.4105 12.3249V13.1517C11.4105 13.4061 11.3611 13.5757 11.2622 13.6605C11.1632 13.7453 10.9866 13.7877 10.7322 13.7877H9.92673ZM13.827 13.7877C13.5726 13.7877 13.396 13.7453 13.2971 13.6605C13.1981 13.5757 13.1487 13.4061 13.1487 13.1517V12.3249C13.1487 12.0707 13.1981 11.8976 13.2971 11.8057C13.396 11.7138 13.5726 11.6679 13.827 11.6679H14.6325C14.8869 11.6679 15.06 11.7138 15.1519 11.8057C15.2438 11.8976 15.2897 12.0707 15.2897 12.3249V13.1517C15.2897 13.4061 15.2438 13.5757 15.1519 13.6605C15.06 13.7453 14.8869 13.7877 14.6325 13.7877H13.827ZM17.7273 13.7877C17.4589 13.7877 17.2787 13.7453 17.1868 13.6605C17.0949 13.5757 17.049 13.4061 17.049 13.1517V12.3249C17.049 11.8869 17.2751 11.6679 17.7273 11.6679H18.5115C18.9637 11.6679 19.1898 11.8869 19.1898 12.3249V13.1517C19.1898 13.5757 18.9637 13.7877 18.5115 13.7877H17.7273ZM6.04764 17.6242C5.59544 17.6242 5.36933 17.3981 5.36933 16.9459V16.1406C5.36933 15.7166 5.59544 15.5046 6.04764 15.5046H6.83194C7.10044 15.5046 7.28063 15.547 7.37249 15.6318C7.46433 15.7166 7.51025 15.8862 7.51025 16.1406V16.9459C7.51025 17.3981 7.28415 17.6242 6.83194 17.6242H6.04764ZM9.92673 17.6242C9.67237 17.6242 9.49926 17.5748 9.40742 17.4759C9.31556 17.377 9.26963 17.2003 9.26963 16.9459V16.1406C9.26963 15.8862 9.31556 15.7166 9.40742 15.6318C9.49926 15.547 9.67237 15.5046 9.92673 15.5046H10.7322C10.9866 15.5046 11.1632 15.547 11.2622 15.6318C11.3611 15.7166 11.4105 15.8862 11.4105 16.1406V16.9459C11.4105 17.2003 11.3611 17.377 11.2622 17.4759C11.1632 17.5748 10.9866 17.6242 10.7322 17.6242H9.92673ZM13.827 17.6242C13.5726 17.6242 13.396 17.5748 13.2971 17.4759C13.1981 17.377 13.1487 17.2003 13.1487 16.9459V16.1406C13.1487 15.8862 13.1981 15.7166 13.2971 15.6318C13.396 15.547 13.5726 15.5046 13.827 15.5046H14.6325C14.8869 15.5046 15.06 15.547 15.1519 15.6318C15.2438 15.7166 15.2897 15.8862 15.2897 16.1406V16.9459C15.2897 17.2003 15.2438 17.377 15.1519 17.4759C15.06 17.5748 14.8869 17.6242 14.6325 17.6242H13.827Z"
        fill="white" />
</svg>
