<svg width="18" height="18" viewBox="0 0 18 18" fill="none" xmlns="http://www.w3.org/2000/svg">
    <path
        d="M8.14566 18.001H9.68632C9.90404 18.001 10.0882 17.941 10.2389 17.8209C10.3897 17.7009 10.4873 17.532 10.532 17.3144L10.9675 15.4722C11.1293 15.4164 11.2884 15.3578 11.4447 15.2964C11.601 15.235 11.7489 15.1708 11.8885 15.1038L13.5045 16.0919C13.6831 16.2035 13.8687 16.2509 14.0614 16.2342C14.2539 16.2174 14.4256 16.1337 14.5762 15.983L15.6564 14.9112C15.8071 14.7605 15.8923 14.5847 15.9118 14.3837C15.9313 14.1827 15.8797 13.9929 15.7569 13.8143L14.7688 12.2151C14.8414 12.0699 14.907 11.922 14.9656 11.7713C15.0242 11.6206 15.0787 11.4699 15.1289 11.3191L16.9877 10.8753C17.1998 10.8307 17.3659 10.733 17.486 10.5823C17.606 10.4316 17.666 10.2473 17.666 10.0297V8.51411C17.666 8.302 17.606 8.12058 17.486 7.96986C17.3659 7.81915 17.1998 7.72146 16.9877 7.6768L15.1456 7.23302C15.0898 7.05997 15.0298 6.89809 14.9656 6.74738C14.9014 6.59666 14.8414 6.45431 14.7856 6.32034L15.7736 4.69595C15.8909 4.51732 15.9425 4.33171 15.9286 4.13912C15.9146 3.94654 15.8295 3.77489 15.6731 3.62418L14.5762 2.54403C14.42 2.40448 14.2525 2.32214 14.0739 2.29703C13.8952 2.27191 13.7138 2.31238 13.5296 2.41844L11.8885 3.43159C11.7545 3.35903 11.6108 3.29204 11.4572 3.23063C11.3037 3.16923 11.1405 3.11062 10.9675 3.0548L10.532 1.18758C10.4873 0.975457 10.3897 0.807994 10.2389 0.685187C10.0882 0.56238 9.90404 0.500977 9.68632 0.500977H8.14566C7.92796 0.500977 7.74375 0.56238 7.59303 0.685187C7.44232 0.807994 7.34184 0.975457 7.2916 1.18758L6.85619 3.03805C6.69431 3.09387 6.53382 3.15388 6.37473 3.21808C6.21564 3.28227 6.06632 3.35065 5.92677 3.42322L4.30237 2.41844C4.11816 2.31238 3.93534 2.27051 3.75393 2.29284C3.57251 2.31517 3.40365 2.3989 3.24735 2.54403L2.15884 3.62418C2.00253 3.77489 1.91601 3.94654 1.89926 4.13912C1.88252 4.33171 1.93555 4.51732 2.05835 4.69595L3.03802 6.32034C2.9822 6.45431 2.92219 6.59666 2.858 6.74738C2.7938 6.89809 2.73658 7.05997 2.68634 7.23302L0.844244 7.6768C0.626541 7.72146 0.459077 7.81915 0.341852 7.96986C0.224628 8.12058 0.166016 8.302 0.166016 8.51411V10.0297C0.166016 10.2473 0.224628 10.4316 0.341852 10.5823C0.459077 10.733 0.626541 10.8307 0.844244 10.8753L2.70309 11.3191C2.74775 11.4699 2.80078 11.6206 2.86218 11.7713C2.92358 11.922 2.98778 12.0699 3.05476 12.2151L2.0751 13.8143C1.9523 13.9929 1.90066 14.1827 1.9202 14.3837C1.93974 14.5847 2.02486 14.7605 2.17558 14.9112L3.24735 15.983C3.39807 16.1337 3.56972 16.2174 3.7623 16.2342C3.95488 16.2509 4.14328 16.2035 4.32749 16.0919L5.93515 15.1038C6.0747 15.1708 6.22262 15.235 6.37892 15.2964C6.53522 15.3578 6.69431 15.4164 6.85619 15.4722L7.2916 17.3144C7.34184 17.532 7.44232 17.7009 7.59303 17.8209C7.74375 17.941 7.92796 18.001 8.14566 18.001ZM8.91602 12.2067C8.37454 12.2067 7.87912 12.0727 7.42976 11.8048C6.9804 11.5368 6.62314 11.1782 6.35799 10.7288C6.09284 10.2795 5.96026 9.78406 5.96026 9.24257C5.96026 8.70112 6.09423 8.2085 6.36217 7.76472C6.63011 7.32094 6.98737 6.96508 7.43394 6.69713C7.88051 6.42919 8.37454 6.29522 8.91602 6.29522C9.45744 6.29522 9.95286 6.42919 10.4023 6.69713C10.8516 6.96508 11.2089 7.32094 11.474 7.76472C11.7391 8.2085 11.8717 8.70112 11.8717 9.24257C11.8717 9.78406 11.7391 10.2795 11.474 10.7288C11.2089 11.1782 10.8516 11.5368 10.4023 11.8048C9.95286 12.0727 9.45744 12.2067 8.91602 12.2067Z"
        fill="#0D3F5E" />
</svg>
